<?xml version="1.0" encoding="utf-8"?>
<!-- Generator: Adobe Illustrator 16.0.0, SVG Export Plug-In . SVG Version: 6.00 Build 0)  -->
<!DOCTYPE svg PUBLIC "-//W3C//DTD SVG 1.1//EN" "http://www.w3.org/Graphics/SVG/1.1/DTD/svg11.dtd">
<svg version="1.1" id="Layer_1" xmlns="http://www.w3.org/2000/svg" xmlns:xlink="http://www.w3.org/1999/xlink" x="0px" y="0px"
	 width="693px" height="252px" viewBox="74.445 152.14 693 252" enable-background="new 74.445 152.14 693 252"
	 xml:space="preserve">
<rect x="41.253" y="138.523" fill="none" width="753.491" height="303.922"/>
<line stroke="#4B494A" stroke-width="10" stroke-miterlimit="10" x1="106.078" y1="374.253" x2="222.259" y2="281.644"/>
<line stroke="#4B494A" stroke-width="10" stroke-miterlimit="10" x1="106.078" y1="374.253" x2="222.259" y2="281.644"/>
<line stroke="#4B494A" stroke-width="10" stroke-miterlimit="10" x1="356.119" y1="369.201" x2="222.259" y2="281.644"/>
<line stroke="#4B494A" stroke-width="10" stroke-miterlimit="10" x1="468.091" y1="239.55" x2="356.119" y2="374.253"/>
<line stroke="#4B494A" stroke-width="10" stroke-miterlimit="10" x1="575.01" y1="339.735" x2="468.091" y2="239.55"/>
<line stroke="#4B494A" stroke-width="10" stroke-miterlimit="10" x1="735.812" y1="186.51" x2="575.01" y2="339.735"/>
<g>
	<circle fill="#EE4F4F" cx="106.078" cy="374.252" r="29.466"/>
	<circle fill="#4B494A" cx="106.078" cy="374.252" r="19.364"/>
</g>
<g>
	<circle fill="#168EEA" cx="222.259" cy="281.645" r="29.466"/>
	<circle fill="#4B494A" cx="222.259" cy="281.644" r="19.363"/>
</g>
<circle fill="#EE4F4F" cx="356.119" cy="369.201" r="29.466"/>
<circle fill="#4B494A" cx="356.119" cy="369.201" r="19.363"/>
<path fill="#FFFFFF" stroke="#FFFFFF" stroke-width="2" stroke-miterlimit="10" d="M575.01,339.735"/>
<path fill="#FFFFFF" stroke="#FFFFFF" stroke-width="2" stroke-miterlimit="10" d="M735.812,186.51"/>
<g>
	<circle fill="#168EEA" cx="468.091" cy="239.55" r="29.466"/>
	<circle fill="#4B494A" cx="468.091" cy="239.55" r="19.363"/>
</g>
<g>
	<circle fill="#EE4F4F" cx="575.01" cy="339.735" r="29.466"/>
	<circle fill="#4B494A" cx="575.01" cy="339.735" r="19.363"/>
</g>
<g>
	<circle fill="#168EEA" cx="735.812" cy="186.511" r="29.466"/>
	<circle fill="#4B494A" cx="735.812" cy="186.51" r="19.363"/>
</g>
<line fill="none" x1="315.709" y1="268.174" x2="311.499" y2="268.174"/>
</svg>
